<svg style="max-height: 500px" color-interpolation-filters="sRGB" preserveAspectRatio="xMidYMid meet" viewBox="55 109.5 231 30" xmlns:xlink="http://www.w3.org/1999/xlink" xmlns="http://www.w3.org/2000/svg" version="1.0" data-v-0dd9719b="" width="231" height="30"> 
<g transform="translate(56.774993896484375,111.63500022888184)" class="basesvg" fill="#133157" data-v-0dd9719b=""><g class="tp-name" fill-rule="" data-gra="path-name"><g transform="scale(1)"><g><path transform="translate(-2.009999990463257, 20.479999542236328)" d="M21.1-19.1L21.1-1.48Q21.1-1.11 20.96-0.79 20.82-0.47 20.58-0.23 20.35 0 20.03 0.13 19.71 0.27 19.35 0.27L19.35 0.27Q19.03 0.27 18.71 0.15 18.38 0.03 18.13-0.24L18.13-0.24 5.47-13.45 5.47 0 2.01 0 2.01-17.62Q2.01-18.15 2.31-18.59 2.61-19.02 3.08-19.23L3.08-19.23Q3.57-19.43 4.09-19.33 4.61-19.23 4.98-18.85L4.98-18.85 17.63-5.65 17.63-19.1 21.1-19.1ZM40.3-9.55L40.3-4.86Q40.3-3.97 40.08-3.26 39.85-2.54 39.48-2 39.1-1.47 38.61-1.09 38.12-0.71 37.58-0.47 37.04-0.23 36.49-0.11 35.93 0 35.44 0L35.44 0 29.19 0Q28.48 0 27.62-0.25 26.77-0.51 26.04-1.09 25.32-1.66 24.83-2.59 24.35-3.52 24.35-4.86L24.35-4.86 24.35-9.55Q24.35-10.88 24.83-11.81 25.32-12.73 26.04-13.31 26.77-13.89 27.62-14.14 28.48-14.4 29.19-14.4L29.19-14.4 35.44-14.4Q36.77-14.4 37.71-13.92 38.64-13.44 39.21-12.71 39.78-11.99 40.04-11.13 40.3-10.28 40.3-9.55L40.3-9.55ZM36.84-4.86L36.84-9.52Q36.84-10.24 36.48-10.59 36.12-10.93 35.44-10.93L35.44-10.93 29.22-10.93Q28.53-10.93 28.17-10.58 27.81-10.23 27.81-9.55L27.81-9.55 27.81-4.86Q27.81-4.18 28.17-3.82 28.53-3.46 29.22-3.46L29.22-3.46 35.44-3.46Q36.15-3.46 36.49-3.82 36.84-4.18 36.84-4.86L36.84-4.86ZM56.75-14.4L60.43-14.4Q59.84-12.57 59.05-10.8 58.27-9.03 57.25-7.43 56.23-5.82 54.97-4.46 53.71-3.09 52.19-2.1 50.66-1.11 48.87-0.54 47.08 0.03 44.99 0.03L44.99 0.03Q44.63 0.03 44.31-0.11 43.99-0.24 43.75-0.47 43.51-0.71 43.38-1.02 43.25-1.33 43.25-1.69L43.25-1.69 43.25-14.4 46.71-14.4 46.71-3.57Q47.97-3.57 49.14-4.12 50.3-4.66 51.34-5.56 52.38-6.46 53.27-7.6 54.15-8.75 54.85-9.96 55.54-11.16 56.02-12.32 56.51-13.48 56.75-14.4L56.75-14.4ZM76.09-9.63L76.09-4.77Q76.09-4.05 75.84-3.22 75.58-2.38 75.02-1.67 74.45-0.96 73.54-0.48 72.63 0 71.32 0L71.32 0 65.07 0Q64.36 0 63.52-0.25 62.69-0.51 61.98-1.07 61.27-1.64 60.79-2.55 60.31-3.46 60.31-4.77L60.31-4.77Q60.31-5.49 60.56-6.33 60.81-7.17 61.38-7.88 61.95-8.59 62.86-9.07 63.77-9.55 65.07-9.55L65.07-9.55 71.32-9.55 71.32-6.25 65.07-6.25Q64.37-6.25 63.98-5.81 63.6-5.38 63.6-4.74L63.6-4.74Q63.6-4.06 64.04-3.68 64.49-3.3 65.1-3.3L65.1-3.3 71.32-3.3Q72.03-3.3 72.41-3.73 72.8-4.16 72.8-4.79L72.8-4.79 72.8-9.63Q72.8-10.31 72.38-10.71 71.96-11.11 71.32-11.11L71.32-11.11 63.72-11.11 63.72-14.4 71.32-14.4Q72.04-14.4 72.87-14.14 73.71-13.89 74.42-13.33 75.13-12.76 75.61-11.85 76.09-10.93 76.09-9.63L76.09-9.63ZM98.52-14.89L98.52-12.68Q98.52-11.49 98.23-10.56 97.93-9.63 97.43-8.92 96.93-8.2 96.28-7.7 95.63-7.19 94.92-6.87 94.2-6.54 93.48-6.39 92.75-6.25 92.11-6.25L92.11-6.25 99.34 0 93.99 0 86.77-6.25 84.28-6.25 84.28-9.71 92.11-9.71Q92.76-9.76 93.3-9.98 93.84-10.2 94.24-10.58 94.63-10.95 94.84-11.47 95.06-12 95.06-12.68L95.06-12.68 95.06-14.86Q95.06-15.16 94.98-15.31 94.91-15.46 94.8-15.54 94.68-15.61 94.56-15.62 94.43-15.64 94.32-15.64L94.32-15.64 82.9-15.64 82.9 0 79.43 0 79.43-17.35Q79.43-17.71 79.57-18.03 79.7-18.35 79.93-18.59 80.17-18.83 80.48-18.97 80.8-19.1 81.18-19.1L81.18-19.1 94.32-19.1Q95.48-19.1 96.28-18.68 97.08-18.26 97.58-17.63 98.08-16.99 98.3-16.26 98.52-15.53 98.52-14.89L98.52-14.89ZM116.95-9.63L116.95-9.63Q116.95-8.91 116.7-8.08 116.45-7.25 115.88-6.53 115.31-5.82 114.4-5.34 113.49-4.86 112.18-4.86L112.18-4.86 105.94-4.86 105.94-8.15 112.18-8.15Q112.89-8.15 113.28-8.58 113.66-9.02 113.66-9.66L113.66-9.66Q113.66-10.34 113.23-10.72 112.8-11.11 112.18-11.11L112.18-11.11 105.94-11.11Q105.23-11.11 104.84-10.67 104.46-10.24 104.46-9.6L104.46-9.6 104.46-4.77Q104.46-4.08 104.89-3.69 105.32-3.3 105.96-3.3L105.96-3.3 112.18-3.3 112.18 0 105.94 0Q105.22 0 104.39-0.25 103.55-0.51 102.84-1.07 102.13-1.64 101.65-2.55 101.17-3.46 101.17-4.77L101.17-4.77 101.17-9.63Q101.17-10.35 101.42-11.18 101.67-12.01 102.24-12.73 102.81-13.44 103.72-13.92 104.63-14.4 105.94-14.4L105.94-14.4 112.18-14.4Q112.9-14.4 113.73-14.14 114.57-13.89 115.28-13.33 115.99-12.76 116.47-11.85 116.95-10.93 116.95-9.63ZM135.16-9.55L135.16-4.86Q135.16-3.97 134.93-3.26 134.7-2.54 134.33-2 133.96-1.47 133.47-1.09 132.97-0.71 132.43-0.47 131.89-0.23 131.35-0.11 130.8 0 130.31 0L130.31 0 124.06 0 124.06-3.46 130.31-3.46Q131-3.46 131.35-3.82 131.69-4.18 131.69-4.86L131.69-4.86 131.69-9.52Q131.69-10.24 131.34-10.59 130.99-10.93 130.31-10.93L130.31-10.93 124.09-10.93Q123.38-10.93 123.02-10.58 122.66-10.23 122.66-9.55L122.66-9.55 122.66 4.5 119.2 4.5 119.2-9.55Q119.2-10.44 119.43-11.15 119.65-11.85 120.03-12.39 120.41-12.93 120.91-13.31 121.4-13.69 121.94-13.93 122.48-14.17 123.03-14.28 123.58-14.4 124.06-14.4L124.06-14.4 130.31-14.4Q131.2-14.4 131.91-14.17 132.61-13.94 133.15-13.57 133.69-13.2 134.07-12.71 134.45-12.21 134.69-11.67 134.93-11.13 135.04-10.59 135.16-10.04 135.16-9.55L135.16-9.55ZM153.78-9.55L153.78-4.86Q153.78-3.97 153.55-3.26 153.32-2.54 152.95-2 152.58-1.47 152.09-1.09 151.59-0.71 151.05-0.47 150.51-0.23 149.96-0.11 149.41 0 148.92 0L148.92 0 142.67 0Q141.95 0 141.1-0.25 140.25-0.51 139.52-1.09 138.79-1.66 138.31-2.59 137.82-3.52 137.82-4.86L137.82-4.86 137.82-9.55Q137.82-10.88 138.31-11.81 138.79-12.73 139.52-13.31 140.25-13.89 141.1-14.14 141.95-14.4 142.67-14.4L142.67-14.4 148.92-14.4Q150.25-14.4 151.18-13.92 152.11-13.44 152.69-12.71 153.26-11.99 153.52-11.13 153.78-10.28 153.78-9.55L153.78-9.55ZM150.31-4.86L150.31-9.52Q150.31-10.24 149.95-10.59 149.6-10.93 148.92-10.93L148.92-10.93 142.7-10.93Q142-10.93 141.64-10.58 141.28-10.23 141.28-9.55L141.28-9.55 141.28-4.86Q141.28-4.18 141.64-3.82 142-3.46 142.7-3.46L142.7-3.46 148.92-3.46Q149.62-3.46 149.97-3.82 150.31-4.18 150.31-4.86L150.31-4.86ZM169.32-14.4L169.32-10.93 161.53-10.93Q160.82-10.93 160.46-10.58 160.1-10.23 160.1-9.55L160.1-9.55 160.1 0 156.64 0 156.64-9.55Q156.64-10.44 156.87-11.15 157.09-11.85 157.47-12.39 157.85-12.93 158.35-13.31 158.84-13.69 159.38-13.93 159.92-14.17 160.47-14.28 161.02-14.4 161.5-14.4L161.5-14.4 169.32-14.4ZM184.69-14.4L184.69-10.93 178.64-10.93 178.64 0 175.14 0 175.14-10.93 170.64-10.93 170.64-14.4 175.14-14.4 175.14-19.1 178.64-19.1 178.64-14.4 184.69-14.4ZM190.48-20.48L190.48-17.35 187.02-17.35 187.02-20.48 190.48-20.48ZM190.48-14.4L190.48 0 187.02 0 187.02-14.4 190.48-14.4ZM209.76-7.99L209.76 0 206.29 0 206.29-7.99Q206.29-8.67 206.06-9.21 205.83-9.75 205.43-10.14 205.03-10.52 204.49-10.73 203.95-10.93 203.32-10.93L203.32-10.93 197.26-10.93 197.26 0 193.8 0 193.8-12.68Q193.8-13.04 193.93-13.35 194.07-13.66 194.31-13.9 194.55-14.13 194.87-14.26 195.19-14.4 195.54-14.4L195.54-14.4 203.35-14.4Q204-14.4 204.73-14.25 205.45-14.1 206.17-13.78 206.88-13.45 207.52-12.95 208.17-12.45 208.67-11.74 209.17-11.03 209.46-10.1 209.76-9.16 209.76-7.99L209.76-7.99ZM228.46-9.55L228.46 1.39Q228.46 2.28 228.23 2.99 228 3.7 227.63 4.24 227.26 4.78 226.76 5.16 226.27 5.54 225.73 5.78 225.19 6.02 224.64 6.13 224.09 6.25 223.59 6.25L223.59 6.25 217.35 6.25 217.35 2.78 223.59 2.78Q224.3 2.78 224.65 2.42 224.99 2.06 224.99 1.39L224.99 1.39 224.99-9.55Q224.99-10.23 224.65-10.58 224.3-10.93 223.59-10.93L223.59-10.93 217.35-10.93Q216.71-10.93 216.34-10.54 215.96-10.15 215.96-9.55L215.96-9.55 215.96-4.86Q215.96-4.18 216.32-3.82 216.68-3.46 217.37-3.46L217.37-3.46 223.59-3.46 223.59 0 217.35 0Q216.85 0 216.31-0.11 215.76-0.23 215.22-0.47 214.68-0.71 214.19-1.09 213.7-1.47 213.33-2 212.95-2.54 212.73-3.26 212.5-3.97 212.5-4.86L212.5-4.86 212.5-9.55Q212.5-10.04 212.61-10.59 212.73-11.13 212.97-11.67 213.21-12.21 213.58-12.71 213.96-13.2 214.5-13.57 215.04-13.94 215.75-14.17 216.45-14.4 217.35-14.4L217.35-14.4 223.59-14.4Q224.09-14.4 224.64-14.28 225.19-14.17 225.73-13.93 226.27-13.69 226.76-13.31 227.26-12.93 227.63-12.39 228-11.85 228.23-11.15 228.46-10.44 228.46-9.55L228.46-9.55Z"/></g>       </g></g> </g>
</svg>